<?xml version="1.0" standalone="no"?>
<!DOCTYPE svg PUBLIC "-//W3C//DTD SVG 20010904//EN"
 "http://www.w3.org/TR/2001/REC-SVG-20010904/DTD/svg10.dtd">
<svg version="1.0" xmlns="http://www.w3.org/2000/svg"
 width="360.000000pt" height="360.000000pt" viewBox="0 0 360.000000 360.000000"
 preserveAspectRatio="xMidYMid meet">

<g transform="translate(0.000000,360.000000) scale(0.100000,-0.100000)"
fill="#ffffff" stroke="none">
<path d="M1779 2526 c-141 -50 -179 -122 -179 -337 l0 -139 -80 0 -80 0 0
-110 0 -109 78 -3 77 -3 3 -387 2 -388 140 0 140 0 0 390 0 390 114 0 115 0 5
53 c3 28 7 78 10 110 l5 57 -125 0 -124 0 0 100 c0 93 2 103 24 125 31 31 81
40 153 27 32 -5 59 -9 61 -7 4 3 29 144 34 190 3 29 1 30 -52 42 -76 16 -276
15 -321 -1z"/>
</g>
</svg>
